<?xml version="1.0" standalone="no"?><!DOCTYPE svg PUBLIC "-//W3C//DTD SVG 1.1//EN" "http://www.w3.org/Graphics/SVG/1.1/DTD/svg11.dtd"><svg class="icon" width="200px" height="200.00px" viewBox="0 0 1024 1024" version="1.1" xmlns="http://www.w3.org/2000/svg"><path d="M 645.777 548.711 c -24.0303 -4.41966 -49.1668 -7.7014 -75.1086 -9.71118 l -10.6352 -0.826831 l 9.45126 -4.91085 c 23.0674 -11.987 43.8159 -30.823 60.9624 -54.7182 c 17.2161 -23.9945 30.8056 -53.1178 39.5058 -85.5627 l 0.76134 -2.83047 l 2.84377 0.650823 c 17.0411 3.8333 29.5695 -3.05969 36.7684 -14.0889 c 3.56008 -5.45422 5.87071 -11.944 6.8142 -18.6631 c 0.943488 -6.72619 0.517793 -13.7031 -1.35793 -20.0906 c -3.92336 -13.3398 -14.3508 -24.2738 -32.1032 -25.4987 l -2.86935 -0.197498 l 0.033769 -2.86116 l 0.00921 -0.681522 l -0.00921 0 c 0 -47.7342 7.61237 -78.0455 13.5987 -101.88 c 3.79954 -15.1408 6.94211 -27.6293 6.94211 -40.2057 c 0 -45.8513 -49.2261 -75.3706 -112.215 -88.4096 c -24.7916 -5.12983 -51.7476 -7.70447 -78.7393 -7.70447 c -26.9948 0 -53.9518 2.57566 -78.7444 7.70447 c -62.9906 13.039 -112.214 42.5583 -112.214 88.4096 c 0 12.5764 3.13643 25.0649 6.94211 40.2057 c 5.99146 23.842 13.6028 54.1462 13.6028 101.88 l -0.007163 0 l 0.007163 0.724501 l 0.034792 2.82637 l -2.82739 0.233314 c -17.7134 1.42035 -28.0519 12.5519 -31.8494 25.9899 c -1.75599 6.2391 -2.13052 13.0216 -1.21364 19.5748 c 0.916882 6.53586 3.13439 12.8558 6.54507 18.2108 c 7.10277 11.152 19.5892 18.2394 36.6487 14.6005 l 2.82739 -0.607844 l 0.743944 2.79772 c 8.71652 32.4623 22.3244 61.5754 39.5242 85.5453 c 17.1445 23.8778 37.8961 42.7067 60.9717 54.6834 l 9.46149 4.90368 l -10.6281 0.832971 c -25.8794 2.0108 -50.933 5.29254 -74.8968 9.70401 c -23.7223 4.37054 -46.4335 9.84932 -67.8534 16.3105 c 0.191358 47.6001 6.5819 94.3059 27.1043 129.121 c 20.6401 35.0134 55.8244 58.1381 113.807 58.1381 l 3.24286 0 c 4.4125 -6.51437 10.1952 -11.8744 16.8651 -16.0782 c 12.1047 -7.61954 27.1555 -11.4487 42.1479 -11.4487 c 14.9873 0 30.0381 3.82921 42.1459 11.46 c 6.66275 4.19351 12.4495 9.55256 16.8477 16.0669 l 3.25207 0 c 57.9826 0 93.1598 -23.1257 113.798 -58.1381 c 20.5234 -34.8139 26.9201 -81.5135 27.1105 -129.121 c -21.4751 -6.47548 -44.2549 -11.9727 -68.0499 -16.3432 L 645.777 548.711 Z M 740.334 569.999 c 108.98 38.373 180.667 103.466 180.667 177.308 c 0 117.982 -183.022 213.635 -408.791 213.635 c -343.411 0 -602.305 -259.185 -228.118 -390.942 c 0 107.356 41.889 206.213 164.455 207.261 c 1.1942 63.2045 126.146 63.2045 127.336 0 c 122.566 -1.04889 164.457 -99.9054 164.457 -207.261 L 740.334 570 Z M 454.506 223.234 l 42.8325 0 l 0 -42.8305 l 29.723 0 l 0 42.8305 l 42.8305 0 l 0 29.7209 l -42.8305 0 l 0 42.8346 l -29.723 0 l 0 -42.8346 l -42.8325 0 L 454.506 223.234 L 454.506 223.234 Z M 512.2 146.927 c 50.3508 0 91.1715 40.8176 91.1715 91.1694 c 0 50.3589 -40.8207 91.1796 -91.1715 91.1796 c -50.36 0 -91.1807 -40.8207 -91.1807 -91.1796 C 421.019 187.745 461.84 146.927 512.2 146.927 L 512.2 146.927 Z M 512.2 146.927" fill="#1296db" /></svg>